<svg width="1276" height="909" viewBox="0 0 1276 909" fill="none" xmlns="http://www.w3.org/2000/svg">
<path fill-rule="evenodd" clip-rule="evenodd" d="M0 264.891L30.8367 229.107C60.61 193.323 121.22 121.756 181.83 68.0798C243.503 14.4041 304.113 -21.3797 364.723 14.4041C425.333 50.1879 485.943 157.539 546.553 264.891C607.163 372.242 668.837 479.594 729.447 515.378C790.057 551.162 850.667 515.378 911.277 497.486C971.887 479.594 1032.5 479.594 1094.17 497.486C1154.78 515.378 1215.39 551.162 1245.16 569.054L1276 586.945V909H1245.16C1215.39 909 1154.78 909 1094.17 909C1032.5 909 971.887 909 911.277 909C850.667 909 790.057 909 729.447 909C668.837 909 607.163 909 546.553 909C485.943 909 425.333 909 364.723 909C304.113 909 243.503 909 181.83 909C121.22 909 60.61 909 30.8367 909H0V264.891Z" fill="#0099FF"/>
</svg>
